<svg xmlns="http://www.w3.org/2000/svg" viewBox="0 0 500 500"><g id="freepik--character-1--inject-31"><path d="M148.3,185.81s-11.76,14.88-22.57,9.36-19.88-12.21-22.1-21.92-9.08-10.82-9.08-10.82,2.59-2.59,6.86,1.11c0,0,2.44-3-1-7.53S98,141.32,106.67,141.5c0,0-4.34,2.78-2.49,5.74s11.84,3.71,12.5,9.08c0,0,4.55-1.71,2.32-5.86a5.44,5.44,0,0,1,1.48-6.92s-2.19,4.77.85,6.92,9.34,7.9,6.93,12.53a5.83,5.83,0,0,0,3.26-5.45s6.21,3.78,5.93,8.6S150,176.59,148.3,185.81Z" style="fill:#263238"></path><path d="M149.12,198.09s-1.77,6.94-10.3,9.15-17.95-3.56-17.95-3.56l1.87,16.54,10.45,20.44,26.68-7S158.27,209,149.12,198.09Z" style="fill:#e4897b"></path><path d="M140.57,208.82l-8.19.25c3.63-4.66-2.94-12.75-2.94-12.75l8.1,1.76c1.93,8,5.26,8.25,5.26,8.25Z" style="fill:#e4897b"></path><path d="M139.8,203.83a12.23,12.23,0,0,1-8.13-4.09,24.53,24.53,0,0,0-2.23-3.42l8.09,1.76A18.81,18.81,0,0,0,139.8,203.83Z" style="opacity:0.2;isolation:isolate"></path><path d="M137.53,176.19c7.06.59,9,4.56,8.93,11.88-.11,9.14-2.67,15.44-11.33,12.76C123.35,197.19,125.8,175.21,137.53,176.19Z" style="fill:#e4897b"></path><path d="M141.93,187.29a14.66,14.66,0,0,0,1.81,3.1,2,2,0,0,1-1.93.64Z" style="fill:#de5753"></path><path d="M137.15,186.13l1.53-.5S137.86,186.84,137.15,186.13Z" style="fill:#263238"></path><path d="M137.68,186a1.28,1.28,0,0,0-1.68.45,2,2,0,0,1,1.62,0Z" style="fill:#263238"></path><path d="M134.84,182.65a.39.39,0,0,1-.25-.1.37.37,0,0,1,0-.52,4,4,0,0,1,3.48-.91.36.36,0,0,1,.28.43.37.37,0,0,1-.43.28,3.28,3.28,0,0,0-2.81.71A.38.38,0,0,1,134.84,182.65Z" style="fill:#263238"></path><path d="M145.91,182.78a.35.35,0,0,1-.22-.08,3,3,0,0,0-2.45-.75.36.36,0,0,1-.44-.25.37.37,0,0,1,.25-.45,3.69,3.69,0,0,1,3.09.88.37.37,0,0,1,.06.51A.38.38,0,0,1,145.91,182.78Z" style="fill:#263238"></path><path d="M128.82,187.45s3.78-5.53,3.66-10c0,0,14.47-4.55,14,9.71,0,0,2.42-12.5-9.69-13.79S123.21,189.79,129,195.6C129,195.6,126.47,190.9,128.82,187.45Z" style="fill:#263238"></path><path d="M129.85,189a3.12,3.12,0,0,0-3.1-3.11c-2.21.06-3.63,4.47,1.73,6C129.25,192.14,129.75,191.41,129.85,189Z" style="fill:#e4897b"></path><path d="M141.86,193.13a18.85,18.85,0,0,0-1.38,2.19,3.66,3.66,0,0,1-.43-.15c-2-.68-2.64-1.65-2.8-2.51a2.69,2.69,0,0,1,.1-1.26,2.78,2.78,0,0,1,.29-.66,9.91,9.91,0,0,0,3.56,2.14Z" style="fill:#263238"></path><path d="M141.2,192.88l-.42.64c-1.84-.65-3.05-1.36-3.43-2.12a2.78,2.78,0,0,1,.29-.66A9.91,9.91,0,0,0,141.2,192.88Z" style="fill:#fff"></path><path d="M140.05,195.17c-2-.68-2.64-1.65-2.8-2.51a6.79,6.79,0,0,1,2,1.19A2.53,2.53,0,0,1,140.05,195.17Z" style="fill:#de5753"></path><path d="M137.34,176.71s-3.82,11.38-11.12,10.62,5.21-14.53,5.21-14.53,12.32-3.51,17.68,3.32-2.66,11-2.66,11S147.65,178.15,137.34,176.71Z" style="fill:#263238"></path><path d="M131.52,186.43a.26.26,0,0,1-.24-.16.25.25,0,0,1,.15-.32c5.78-2.21,5.66-10,5.66-10.07a.24.24,0,0,1,.24-.25h0a.26.26,0,0,1,.25.24c0,.08.13,8.21-6,10.55Z" style="fill:#263238"></path><path d="M144.31,186.82l1.53-.49S145,187.54,144.31,186.82Z" style="fill:#263238"></path><path d="M144.84,186.65a1.3,1.3,0,0,0-1.68.45,2,2,0,0,1,1.62,0Z" style="fill:#263238"></path><path d="M111.65,160.91l-2.58-6.67a2.29,2.29,0,0,0-.67-2c-1.8-1.34-5.5-2.55-6.43-2.42-1.36.2-4.16,2.66-3.92,4.26s8.16,2.6,8.16,2.6l2.62,7.28Z" style="fill:#e4897b"></path><path d="M162.29,155.67l2.07-6.84a2.32,2.32,0,0,1,.53-2c1.68-1.47,5.29-3,6.23-2.89,1.37.1,4.34,2.34,4.23,3.95s-7.94,3.2-7.94,3.2l-2.07,7.47Z" style="fill:#e4897b"></path><path d="M122.74,220.22s5-4,3-12.73l-5.36-24.24-11.31-29-2.86,2.49s8,28.22,8.72,29.87c.36.86,1.78,13.53,3.71,22C120.42,216.47,122.74,220.22,122.74,220.22Z" style="fill:#e4897b"></path><path d="M168.09,150.29s-8,28.23-8.72,29.89c-.28.68-1.26,8.94-2.63,16.57-.34,1.9-.7,3.77-1.09,5.46-.46,2-.94,3.75-1.42,5.23a0,0,0,0,0,0,0,31.74,31.74,0,0,1-2.67,6.33s-5-4-3-12.73l5.36-24.25,11.31-29Z" style="fill:#e4897b"></path><path d="M130.31,207.28s1,15-4.08,21.63l7,11.75s-6,24.14-3.8,31.55,10.85,15.84,16,15.62c16.33-.7,22.71-24.86,22.71-24.86l-8.22-29.27s.08-14.08-3.86-19.91c0,0-9.14-8.19-12-9.35l-1.23.78s3.37,10.88-.43,11.63-10.66-9.33-10.66-9.33Z" style="fill:#F8E8C4"></path><path d="M211.23,263.76c-.8,2.82-5,10.36-10,18.83-5.91,10-13,21.23-17,27.65-2.05,3.24-3.35,5.25-3.35,5.25h-5.68l.43-1.13,13.89-36.13,5.29-13.77a95.6,95.6,0,0,1-15,10.82c-7,4-15.49,7.67-23.71,7.69h-.45s.53-.64,1.35-1.89a45.72,45.72,0,0,0,4.86-10.17v0A53.64,53.64,0,0,0,164.45,250l3.64,5.07S200.6,238.28,208,242.71,213.46,255.9,211.23,263.76Z" style="fill:#e4897b"></path><path d="M183.79,326.87c-1.55-1.48-4.81-4.87-5.93-5.95-1.83-1.75-3-2.66-4.46-4a.25.25,0,0,1-.11-.12.9.9,0,0,1,.31-1.17s1-.55,2-1.24a12,12,0,0,0,2.44-1.93c.72-.94,1.65-4.52,1.8-4.37l5.5-.17s-.51,1-1.14,2.35a41,41,0,0,0-2.54,6.12c-.38,1.8,3,6.15,5.15,9.62C187.28,326.74,185.35,328.36,183.79,326.87Z" style="fill:#e4897b"></path><path d="M179.75,275.28c-7,4-15.49,7.67-23.71,7.69l.9-1.89,4.86-10.17v0S169.74,272.48,179.75,275.28Z" style="opacity:0.2;isolation:isolate"></path><path d="M186.8,326c.48.76-1.45,2.38-3,.89s-4.81-4.87-5.93-5.95c-1.83-1.75-3-2.66-4.46-4a.25.25,0,0,1-.11-.12.9.9,0,0,1,.31-1.17s1-.55,2-1.24l13.89-36.13c4,1.32,8,2.77,11.74,4.36-5.91,10-13,21.23-17,27.65a41,41,0,0,0-2.54,6.12C181.27,318.16,184.65,322.51,186.8,326Z" style="opacity:0.2;isolation:isolate"></path><path d="M133.88,272.67s1.26-7.48,4.93-12.42,16.78,8.15,16.78,8.15,41.06,15.75,47,25.29S141.4,329.8,141.4,329.8l-2.59-2.32,37.34-26.75S134.25,293.74,133.88,272.67Z" style="fill:#e4897b"></path><path d="M150.32,326.12l-4.38-3.32c0-.21-3,2-4.15,2.27-1.32.32-5.45-.33-5.45-.33a.91.91,0,0,0-1,.71v.17c.3,2,.63,3.43.95,5.94.19,1.54.6,6.22.87,8.35s2.78,2.1,2.9,1.2c.5-4.05.61-9.56,2-10.71C143.73,329.1,150.32,326.12,150.32,326.12Z" style="fill:#e4897b"></path></g></svg>